<?xml version="1.0" encoding="UTF-8" standalone="no"?>
<!-- Created with Inkscape (http://www.inkscape.org/) -->
<svg
   xmlns:dc="http://purl.org/dc/elements/1.1/"
   xmlns:cc="http://creativecommons.org/ns#"
   xmlns:rdf="http://www.w3.org/1999/02/22-rdf-syntax-ns#"
   xmlns:svg="http://www.w3.org/2000/svg"
   xmlns="http://www.w3.org/2000/svg"
   xmlns:sodipodi="http://sodipodi.sourceforge.net/DTD/sodipodi-0.dtd"
   xmlns:inkscape="http://www.inkscape.org/namespaces/inkscape"
   width="542.64636"
   height="307.11121"
   id="svg2"
   sodipodi:version="0.32"
   inkscape:version="0.46"
   version="1.0"
   sodipodi:docname="TUD_chaos.svg"
   inkscape:output_extension="org.inkscape.output.svg.inkscape">
  <defs
     id="defs4">
    <inkscape:perspective
       sodipodi:type="inkscape:persp3d"
       inkscape:vp_x="0 : 526.18109 : 1"
       inkscape:vp_y="0 : 1000 : 0"
       inkscape:vp_z="744.09448 : 526.18109 : 1"
       inkscape:persp3d-origin="372.04724 : 350.78739 : 1"
       id="perspective10" />
  </defs>
  <sodipodi:namedview
     id="base"
     pagecolor="#ffffff"
     bordercolor="#666666"
     borderopacity="1.0"
     inkscape:pageopacity="0.0"
     inkscape:pageshadow="2"
     inkscape:zoom="0.98994949"
     inkscape:cx="182.10106"
     inkscape:cy="172.06935"
     inkscape:document-units="px"
     inkscape:current-layer="g2419"
     showgrid="false"
     inkscape:window-width="1672"
     inkscape:window-height="970"
     inkscape:window-x="0"
     inkscape:window-y="0" />
  <metadata
     id="metadata7">
    <rdf:RDF>
      <cc:Work
         rdf:about="">
        <dc:format>image/svg+xml</dc:format>
        <dc:type
           rdf:resource="http://purl.org/dc/dcmitype/StillImage" />
      </cc:Work>
    </rdf:RDF>
  </metadata>
  <g
     inkscape:label="Ebene 1"
     inkscape:groupmode="layer"
     id="layer1"
     transform="translate(0,-745.25098)">
    <g
       id="g2419">
      <path
         d="M 104.79197,831.42532 C 94.631988,830.2018 84.406038,829.6566 74.184008,829.29563 C 66.346818,828.47235 59.360748,830.94336 52.295298,833.87775 C 111.45408,799.86613 87.166678,812.86429 75.343108,822.23739 C 71.302968,825.44019 67.506288,828.85567 63.812098,832.44515 C 58.612298,837.43115 54.842598,843.46963 52.018808,850.04477 C 49.677558,856.26614 50.318458,858.13879 55.909048,861.34026 C 62.093408,863.72925 68.719608,864.73845 75.047908,866.68225 C 81.225298,868.55693 87.245728,870.91825 93.325008,873.09422 C 98.754608,874.94116 104.47432,875.33151 110.15783,875.56087 C 115.88472,875.97681 121.39937,875.66713 127.00139,874.5546 C 130.80864,873.89536 128.89789,874.19491 132.7337,873.65643 L 98.792728,899.10795 C 95.005218,899.72986 96.903308,899.41413 93.098468,900.05525 C 87.320718,900.84751 81.496848,900.60234 75.684868,900.2952 C 69.721008,899.82913 63.787888,898.9846 58.176348,896.79649 C 52.214688,894.5757 46.226178,892.37883 40.114738,890.60912 C 33.397921,888.8481 26.374414,887.57921 20.217906,884.25723 C 13.989036,879.81942 11.178096,875.70411 13.572473,867.8966 C 15.997317,860.77829 19.677202,854.08187 24.895451,848.61364 C 41.859228,830.42689 63.392588,819.12354 85.585008,807.74103 C 92.952228,805.03286 100.56152,803.90274 108.42496,804.6482 C 118.77647,805.19728 129.1131,805.97582 139.43733,806.90638 L 104.79197,831.42532 z"
         id="path2383"
         style="fill:none;fill-opacity:1;fill-rule:nonzero;stroke:none;stroke-width:4.28599977;stroke-miterlimit:4;stroke-dasharray:none;stroke-opacity:1" />
      <path
         d="M 84.014688,845.19991 C 76.496068,842.7298 68.624658,841.96376 60.779648,841.34036 C 53.446508,841.14807 46.032418,841.84762 39.010328,844.0678 C 37.637118,844.50197 36.299098,845.04044 34.943476,845.52677 C 36.813428,843.72148 24.482245,850.86827 27.053244,849.44839 C 29.87554,847.88973 32.574092,846.0937 35.490439,844.71903 C 36.755928,844.12252 33.158574,846.26772 32.034362,847.10046 C 28.788457,849.50479 28.098044,850.24616 25.118716,852.9154 C 17.99007,860.65108 15.297057,869.34228 13.487568,879.44426 C 12.125384,888.58262 12.809087,897.91845 15.82598,906.6787 C 16.500458,908.6372 17.386626,910.51627 18.166949,912.43506 C 22.294485,920.88124 28.931102,927.18553 36.703298,932.29241 C 38.732438,933.6257 40.786458,934.94035 42.961378,936.01959 C 45.316738,937.18837 47.825388,938.01869 50.257398,939.01824 C 57.653798,941.57377 65.346478,943.42643 73.193518,943.79681 C 81.199708,944.1747 89.041488,943.04238 96.912808,941.7986 C 108.30404,939.77672 117.98561,934.84082 127.88293,929.16263 L 116.77173,938.14214 C 106.94809,943.59057 96.974358,948.35516 85.754648,950.16267 C 77.827958,951.29344 69.908398,952.29969 61.870848,951.8236 C 53.948618,951.35435 46.157928,949.4251 38.725698,946.72503 C 36.225894,945.68715 33.644827,944.82666 31.226284,943.6114 C 29.024753,942.50518 26.955532,941.14647 24.905043,939.78047 C 16.69181,934.30898 10.34042,928.21188 5.821991,919.33994 C 5.018644,917.37707 4.114002,915.45267 3.411948,913.45134 C 0.299533,904.57885 -0.781567,895.06428 0.575747,885.75368 C 0.832291,884.1342 1.013414,882.50096 1.345379,880.89525 C 2.344706,876.06151 3.922259,870.99179 6.202256,866.60323 C 7.704105,863.71246 9.844994,860.99212 11.755425,858.37756 C 14.433063,855.90002 15.668421,854.64803 18.568099,852.40668 C 24.382449,847.91238 32.986432,843.44189 38.271188,840.40478 C 39.624718,839.62692 40.997088,838.87626 42.412398,838.21749 C 43.692168,837.62181 45.034218,837.1703 46.345128,836.6467 C 47.743568,836.1778 49.124238,835.65215 50.540438,835.23998 C 57.650158,833.17075 65.115578,832.70249 72.478808,832.98754 C 80.502368,833.68159 88.526008,834.51981 96.283668,836.79744 L 84.014688,845.19991 z"
         id="path2393"
         style="fill:#005aa9;fill-opacity:1;fill-rule:nonzero;stroke:none;stroke-width:4.28599977;stroke-miterlimit:4;stroke-dasharray:none;stroke-opacity:1" />
      <path
         d="M 159.91474,745.25098 C 153.80591,760.88875 148.72527,776.90716 143.52456,792.86292 C 134.90468,817.56593 127.96895,842.7811 121.61747,868.14541 C 117.41414,883.22961 114.67435,898.62682 112.73514,914.1456 C 112.58101,915.59502 112.28159,917.03629 112.27276,918.49385 C 112.26887,919.13623 112.14564,920.04468 112.6974,920.37364 C 113.09754,920.61221 113.81903,918.99224 113.38277,919.15565 C 109.94597,920.44294 107.07807,923.52104 103.42265,923.8476 C 101.55307,924.01463 105.99339,921.11108 107.23654,919.70474 C 108.67441,918.07814 110.05504,916.40183 111.46428,914.75037 C 120.4427,904.35807 130.11006,894.60732 140.62017,885.76886 C 147.74936,880.53921 155.13431,875.04793 163.8624,873.06154 C 168.37027,872.03562 172.97203,871.85697 177.56738,871.58064 C 179.51485,871.50563 183.33659,871.33279 185.36726,871.34765 C 186.43837,871.35548 187.53284,871.23775 188.57833,871.47075 C 190.04327,871.79722 193.90008,873.66849 195.10755,874.56994 C 196.32661,875.48006 197.34327,876.63375 198.46113,877.66565 C 203.27778,882.85686 208.3363,888.35496 212.1761,894.32678 C 214.47596,897.90363 215.78967,900.89991 217.62935,904.70006 C 218.28212,906.32349 219.05617,907.90326 219.58768,909.57033 C 222.57439,918.93816 222.94962,929.01994 223.34488,938.75756 C 223.54209,943.40703 223.64209,948.05381 223.60051,952.70644 L 210.63005,959.26984 C 210.84801,954.5982 210.8937,949.92916 210.72497,945.25282 C 210.25801,933.9153 209.79619,922.30188 205.23851,911.72703 C 203.17239,907.36068 202.55757,905.69331 199.89732,901.59074 C 196.03661,895.63684 191.14769,890.33616 186.19616,885.29299 C 183.44769,883.01413 183.03576,882.27693 179.87925,880.99411 C 175.4427,879.19107 170.61056,880.11498 165.96402,880.12492 C 161.41749,880.43423 156.8262,880.67795 152.41259,881.92884 C 148.13739,883.1405 139.77707,887.48122 157.56214,877.93182 C 158.85937,877.23529 155.12577,879.58589 153.90759,880.41293 C 143.2084,889.08346 133.37788,898.73094 124.46072,909.23522 C 123.10088,910.87724 121.74581,912.52321 120.38121,914.16128 C 119.22088,915.55414 118.34518,917.25225 116.88597,918.32796 C 111.97451,921.94859 106.84097,925.31643 101.42822,928.13306 C 100.84127,928.43849 99.981248,927.86711 99.620908,927.31217 C 98.789328,926.03146 99.870958,920.87755 99.928488,920.45354 C 100.88169,914.00776 101.79244,907.52421 103.03536,901.12701 C 104.81579,891.96336 107.17523,882.91042 109.58983,873.899 C 116.22528,848.50296 123.24712,823.20965 131.81577,798.38381 C 136.60864,782.75198 141.5249,767.15755 146.28053,751.51629 L 159.91474,745.25098 z"
         id="path2395"
         style="fill:#99c000;fill-opacity:1;fill-rule:nonzero;stroke:none;stroke-width:4.28599977;stroke-miterlimit:4;stroke-dasharray:none;stroke-opacity:1" />
      <path
         d="M 297.31248,872.12403 C 290.60902,868.52871 283.27021,866.2572 275.95526,864.27075 C 266.77732,862.31474 257.36064,862.07839 248.01304,861.91486 C 243.37376,861.93091 238.78399,862.48156 234.61223,864.61972 C 233.49253,865.19361 230.21838,867.06386 231.36158,866.53833 C 234.5216,865.08569 237.56995,863.40151 240.67413,861.8331 C 231.70496,870.29072 229.17863,878.85729 226.99701,890.61356 C 225.75329,898.45981 226.78431,906.449 230.20096,913.65055 C 230.86126,915.04233 231.68535,916.35031 232.42754,917.70019 C 235.86244,923.12239 239.75199,928.38175 245.25317,931.83015 C 245.80281,932.04218 246.32308,932.35759 246.90209,932.46626 C 248.6796,932.79986 250.87685,932.27008 252.51739,931.92748 C 258.03654,930.77488 263.06149,928.68812 268.25795,926.54918 C 270.00341,925.77063 274.9287,922.95046 273.49433,924.21353 C 271.45995,926.00497 269.022,927.50357 266.3987,928.18639 C 264.45633,928.69197 269.77452,926.00465 271.35686,924.76989 C 275.99674,921.14924 279.93033,916.80865 283.82032,912.42846 C 287.82152,907.62331 291.50983,902.53549 294.30284,896.93054 C 295.74407,894.08701 296.00114,890.95325 296.3907,887.85232 C 297.48306,879.83943 296.24226,881.63574 310.6351,877.71543 C 311.29356,877.53608 310.88196,879.05781 311.00539,879.729 C 312.47141,886.79593 313.01388,894.05011 314.59662,901.09548 C 315.00083,902.89477 315.55518,904.65701 316.03446,906.43777 C 318.05952,912.81429 320.6997,919.09301 324.48939,924.64377 C 326.91543,928.19719 328.17537,929.38606 331.02375,932.54654 C 337.84581,939.00523 345.3805,943.0647 354.93977,943.74781 C 357.60144,943.93801 360.27639,943.69324 362.9447,943.66596 C 380.96304,942.24002 397.45979,934.79503 413.09716,926.2176 L 402.2212,934.97353 C 386.4374,943.35744 369.81324,950.563 351.75025,951.80897 C 348.96993,951.81278 346.18065,952.04344 343.40929,951.8204 C 341.14132,951.63787 338.90146,951.14814 336.69385,950.59725 C 329.18693,948.72394 324.25882,945.22301 318.75553,939.96786 C 316.11408,936.97099 314.36879,935.16623 312.083,931.8451 C 308.18747,926.1851 305.54701,919.78125 303.51275,913.25328 C 302.98995,911.44326 302.37398,909.65759 301.94435,907.82322 C 301.55403,906.15669 301.36518,904.44924 301.05645,902.76569 C 300.07473,897.41233 299.19848,892.0248 297.9229,886.73361 C 296.37044,880.01734 296.90001,884.91805 310.53266,877.02762 C 310.6762,876.94454 310.3892,877.32928 310.35012,877.49046 C 310.0506,878.726 310.03441,880.01745 309.7738,881.26003 C 309.29902,884.48277 309.21696,887.78942 307.81245,890.80466 C 304.99849,896.65335 301.10455,901.8734 296.99562,906.87614 C 293.09546,911.30539 289.1367,915.81301 284.55515,919.5674 C 282.99947,920.84221 281.37439,922.04469 279.65493,923.0881 C 264.16404,932.48836 267.45434,930.82776 257.11919,935.31723 C 250.97526,937.77483 243.70736,941.05281 236.95154,941.1004 C 234.97347,941.11433 234.38979,940.62017 232.75805,939.8211 C 227.35318,935.92129 223.43161,930.49971 219.94846,924.87895 C 219.16127,923.48132 218.27667,922.13424 217.58688,920.68606 C 214.85936,914.95975 213.39247,908.29028 213.60116,901.94389 C 213.65742,900.23333 214.001,898.54435 214.20092,896.84458 C 214.87742,893.09106 215.50859,888.97559 216.62184,885.31766 C 218.79129,878.18928 222.04542,872.60333 227.22155,867.26922 C 232.03007,864.19961 242.19262,856.35729 249.64878,854.32693 C 252.91476,853.43758 256.41101,853.41665 259.7622,853.42584 C 269.18266,853.7593 278.67939,854.01557 287.91668,856.07134 C 295.34529,858.23007 302.75638,860.60665 309.75358,863.93823 L 297.31248,872.12403 z"
         id="path2397"
         style="fill:#fdca00;fill-opacity:1;fill-rule:nonzero;stroke:none;stroke-width:4.28599977;stroke-miterlimit:4;stroke-dasharray:none;stroke-opacity:1" />
      <path
         d="M 530.54564,830.53914 C 525.64891,830.11558 520.71377,829.71415 515.84505,830.66435 C 510.46765,832.70826 503.27605,836.34336 498.03256,839.83566 C 493.78857,843.88177 493.0555,845.13982 489.50978,849.65912 C 484.65453,856.41487 481.31552,864.31157 481.82405,872.78059 C 481.91776,874.34125 482.24906,875.87853 482.46156,877.4275 C 485.27414,888.31193 491.9209,897.52085 498.22167,906.63404 C 504.41519,914.84467 510.4666,923.12815 516.03469,931.77667 C 516.62085,932.74427 517.34022,933.64281 517.79316,934.67947 C 519.24093,937.99306 519.54296,941.30741 517.36945,944.40485 C 515.29504,947.36105 512.11821,949.19838 509.26433,951.23522 C 502.66458,954.67137 496.23223,958.45022 489.46508,961.54367 C 484.12387,963.98528 472.27284,966.62114 467.08338,967.67464 C 450.72801,970.99492 434.12212,972.84162 417.56965,974.82853 C 382.48272,978.57367 347.31953,981.9054 312.08711,983.96959 C 303.59204,984.46729 295.08803,984.79835 286.58848,985.21273 C 237.14838,987.56927 187.6483,987.87891 138.16393,988.28367 C 118.43636,988.29414 98.698708,988.49715 78.983558,989.25668 C 74.122458,989.44396 58.982958,990.21192 53.404878,990.731 C 50.238968,991.02561 47.093838,991.51198 43.938318,991.90247 C 37.582988,992.84862 31.26548,994.0868 25.422159,996.8517 C 24.13041,997.463 20.401491,999.5829 21.67575,998.9361 C 31.844371,993.7738 33.927769,991.0667 29.438473,995.909 C 25.717043,1001.778 27.073736,1004.1481 31.162346,1009.2612 C 36.187539,1014.899 42.368138,1019.2263 49.011788,1022.7194 C 60.834578,1028.0002 73.526658,1031.071 86.104498,1033.9728 C 94.337458,1035.7718 102.66401,1037.0909 111.05072,1037.8935 L 99.114518,1046.3622 C 90.890838,1045.2872 82.737518,1043.7552 74.653478,1041.9004 C 65.037578,1039.6617 69.364688,1040.7544 59.926328,1038.221 C 52.111308,1036.1232 44.218368,1034.1726 36.881618,1030.6646 C 35.662434,1030.0224 34.416668,1029.4284 33.224058,1028.7382 C 27.781383,1025.5882 22.973853,1021.2649 18.634255,1016.7636 C 16.705824,1014.434 14.493002,1011.8751 13.939201,1008.7559 C 13.503737,1006.3033 14.897888,1003.7103 15.915793,1001.631 C 21.416093,994.7437 17.53796,999.0565 32.96028,989.86987 C 39.588588,985.92158 47.388458,984.81097 54.883178,983.76133 C 57.978048,983.44735 61.064628,983.03679 64.167768,982.81941 C 67.830078,982.56286 71.502388,982.47546 75.171178,982.34013 C 99.245298,981.45211 123.34344,981.62301 147.42943,981.54445 C 196.79205,981.43046 246.1696,980.97039 295.48673,978.67602 C 304.07038,978.19146 312.65781,977.76975 321.23768,977.22235 C 356.69093,974.96041 392.06024,971.41744 427.36628,967.52615 C 444.11692,965.4193 460.93963,963.4018 477.4479,959.75828 C 481.79507,958.79882 486.11923,957.71652 490.38695,956.44962 C 493.73597,955.45543 496.78339,952.98573 500.27686,952.98133 C 502.10508,952.97903 497.44044,955.2888 496.02223,956.44253 C 498.97839,954.4648 504.65516,951.39594 505.86142,947.60253 C 506.66038,945.08997 504.81663,941.06066 503.49735,939.07836 C 498.13038,930.33647 492.13333,922.05323 486.0546,913.79494 C 479.58132,904.52139 472.68903,895.25116 469.74485,884.1492 C 469.47938,882.53667 469.07512,880.94092 468.94843,879.3116 C 468.2697,870.58314 471.56546,862.24179 476.51999,855.23332 C 479.87305,850.84538 480.98228,849.08818 484.96729,845.14655 C 492.01323,838.17731 497.45532,835.75616 507.32152,829.75427 C 509.01719,828.72275 510.79403,827.82636 512.5823,826.96529 C 514.27385,826.15079 516.02924,825.47612 517.75271,824.73154 C 521.4419,823.54118 523.52375,822.72734 527.39638,822.0729 C 532.45106,821.2187 537.56323,821.66749 542.64634,821.87862 L 530.54564,830.53914 z"
         id="path2415"
         style="fill:#a60084;fill-opacity:1;fill-rule:nonzero;stroke:none;stroke-width:4.28599977;stroke-miterlimit:4;stroke-dasharray:none;stroke-opacity:1"
         sodipodi:nodetypes="ccccscccsscsscsccsscsscccccccscscscscssccscssscscccscssscscc" />
      <path
         d="M 378.08861,876.26612 C 374.38741,876.60872 375.51304,876.33076 371.38917,877.62347 C 369.95151,878.07414 368.48012,878.45302 367.11101,879.08191 C 365.59268,879.77933 361.24983,882.28259 362.76749,881.58374 C 370.66123,877.94889 374.10284,874.71392 367.36758,880.24761 C 366.37994,881.57346 365.26831,882.8154 364.40465,884.22516 C 359.64539,891.99381 359.08324,901.66693 359.74718,910.4999 C 359.97119,913.48016 360.47595,916.43264 360.84034,919.399 C 361.46342,922.30748 361.82522,925.28447 362.70958,928.12443 C 365.26324,936.32499 371.86061,947.75658 378.73234,953.22249 C 380.08402,954.29764 381.69631,954.99642 383.17829,955.88339 C 384.83258,956.06688 386.47986,956.53596 388.14116,956.43387 C 392.6465,956.15701 397.62224,953.96684 401.03215,951.18797 C 401.91789,950.46615 397.037,952.93224 397.70276,952.00362 C 400.17395,948.55674 403.98562,946.28288 406.81434,943.12281 C 409.77023,939.82069 412.28353,936.14763 415.01812,932.66004 C 417.3136,928.44094 419.93714,924.38445 421.90455,920.00275 C 425.39103,912.23788 428.53248,901.70295 429.47223,893.18631 C 429.97322,888.64604 429.95006,884.04692 429.71737,879.48502 C 429.15453,868.45041 427.78166,865.27566 425.06445,854.84207 C 422.43475,846.80102 419.20017,838.92953 414.70826,831.73541 C 413.20144,829.32214 411.66466,827.19297 409.5816,825.277 C 408.9883,824.73128 408.28876,824.31377 407.64233,823.83216 C 406.9571,823.809 406.25846,823.62577 405.58665,823.76268 C 403.72404,824.14225 397.14654,828.10868 399.8806,826.48138 C 418.87989,815.17313 404.79804,823.90881 400.96581,826.48584 C 398.14291,828.46692 395.33428,830.46457 392.57201,832.52911 L 378.91779,837.9611 C 381.74483,835.82329 384.65855,833.8158 387.53952,831.75104 C 395.27387,826.46764 402.87927,822.03726 411.23914,817.41206 C 412.92798,816.47768 415.5856,815.18771 417.69829,815.28093 C 418.5473,815.31839 419.32851,815.76185 420.14363,816.0023 C 420.78782,816.58085 421.48765,817.10288 422.07619,817.73795 C 424.03182,819.84822 425.54186,822.20629 426.94041,824.72101 C 431.1258,832.24677 434.13755,840.3479 436.6702,848.55778 C 437.66891,852.53367 438.92882,856.45293 439.66631,860.48545 C 441.15675,868.63512 441.98514,879.30345 441.12258,887.54183 C 440.23165,896.05119 436.98351,906.94508 433.61992,914.73734 C 431.71707,919.14558 429.19695,923.26089 426.98546,927.52266 C 422.54704,933.36179 416.29704,942.46547 410.26679,947.03651 C 403.96787,951.8112 397.06801,955.74488 390.29349,959.81672 C 385.57682,962.65168 381.91161,964.75296 376.42498,964.67205 C 374.63396,964.64564 372.91121,963.97411 371.15432,963.62514 C 369.63919,962.62169 367.98535,961.80139 366.60893,960.61479 C 365.09181,959.30689 363.80002,957.75027 362.53663,956.19589 C 357.41448,949.89398 353.08125,942.37222 350.62573,934.60857 C 349.71744,931.73678 349.34621,928.72202 348.70645,925.77874 C 347.27072,915.13537 345.75394,905.14994 349.13413,894.64551 C 350.32383,890.94834 351.94797,888.86756 354.00954,885.64587 C 362.0822,878.70876 357.60999,882.22024 373.93371,872.58715 C 378.83538,869.69454 384.37083,867.92915 390.04131,867.46747 L 378.08861,876.26612 z"
         id="path2417"
         style="fill:#e6001a;fill-opacity:1;fill-rule:nonzero;stroke:none;stroke-width:4.28599977;stroke-miterlimit:4;stroke-dasharray:none;stroke-opacity:1" />
      <text
         xml:space="preserve"
         style="font-size:56px;font-style:normal;font-variant:normal;font-weight:normal;font-stretch:normal;text-align:justify;line-height:125%;writing-mode:lr-tb;text-anchor:start;fill:#000000;fill-opacity:1;stroke:none;stroke-width:1px;stroke-linecap:butt;stroke-linejoin:miter;stroke-opacity:1;font-family:FrontPage;-inkscape-font-specification:FrontPage"
         x="120.13636"
         y="1039.1141"
         id="text2387"
         sodipodi:linespacing="125%"><tspan
           sodipodi:role="line"
           id="tspan2389"
           x="120.13636"
           y="1039.1141"
           style="font-size:64px">simply the best</tspan></text>
    </g>
  </g>
</svg>
